<svg width="30" height="30" viewBox="0 0 30 30" fill="none" xmlns="http://www.w3.org/2000/svg">
<rect width="30" height="30" rx="15" fill="#333333"/>
<path d="M10.3713 14.2397H21.7503C22.1645 14.2397 22.5003 14.5755 22.5003 14.9897V14.9897C22.5003 15.404 22.1645 15.7397 21.7503 15.7397H10.3713L15.9701 21.3385C16.2629 21.6313 16.2629 22.1061 15.9701 22.399V22.399C15.6772 22.6918 15.2024 22.6918 14.9096 22.399L7.78317 15.2726C7.62696 15.1164 7.62696 14.8631 7.78317 14.7069L14.9096 7.58048C15.2024 7.28763 15.6772 7.28763 15.9701 7.58048V7.58048C16.2629 7.87333 16.2629 8.34813 15.9701 8.64098L10.3713 14.2397Z" fill="#FAFAFA"/>
</svg>
