<svg width="24" height="24" viewBox="0 0 24 24" fill="none" xmlns="http://www.w3.org/2000/svg">
<g clip-path="url(#clip0_3190_736789)">
<path d="M12 6.22727C15.4455 6.22727 18.5182 8.16364 20.0182 11.2273C19.4818 12.3364 18.7273 13.2909 17.8273 14.0636L19.1091 15.3455C20.3727 14.2273 21.3727 12.8273 22 11.2273C20.4273 7.23636 16.5455 4.40909 12 4.40909C10.8455 4.40909 9.73636 4.59091 8.69091 4.92727L10.1909 6.42727C10.7818 6.30909 11.3818 6.22727 12 6.22727ZM11.0273 7.26364L12.9091 9.14545C13.4273 9.37273 13.8455 9.79091 14.0727 10.3091L15.9545 12.1909C16.0273 11.8818 16.0818 11.5545 16.0818 11.2182C16.0909 8.96364 14.2545 7.13636 12 7.13636C11.6636 7.13636 11.3455 7.18182 11.0273 7.26364ZM2.91818 4.29091L5.35455 6.72727C3.87273 7.89091 2.7 9.43636 2 11.2273C3.57273 15.2182 7.45455 18.0455 12 18.0455C13.3818 18.0455 14.7091 17.7818 15.9273 17.3L19.0364 20.4091L20.3182 19.1273L4.2 3L2.91818 4.29091ZM9.73636 11.1091L12.1091 13.4818C12.0727 13.4909 12.0364 13.5 12 13.5C10.7455 13.5 9.72727 12.4818 9.72727 11.2273C9.72727 11.1818 9.73636 11.1545 9.73636 11.1091V11.1091ZM6.64545 8.01818L8.23636 9.60909C8.02727 10.1091 7.90909 10.6545 7.90909 11.2273C7.90909 13.4818 9.74545 15.3182 12 15.3182C12.5727 15.3182 13.1182 15.2 13.6091 14.9909L14.5 15.8818C13.7 16.1 12.8636 16.2273 12 16.2273C8.55455 16.2273 5.48182 14.2909 3.98182 11.2273C4.61818 9.92727 5.54545 8.85454 6.64545 8.01818Z" fill="currentcolor"/>
</g>
<defs>
<clipPath id="clip0_3190_736789">
<rect width="24" height="24" fill="currentcolor"/>
</clipPath>
</defs>
</svg>
