<svg width="20" height="20" viewBox="0 0 20 20" fill="none" xmlns="http://www.w3.org/2000/svg">
    <path fill-rule="evenodd" clip-rule="evenodd" d="M3.334 13.333v1.666a3.333 3.333 0 0 0 3.333 3.334H15a3.332 3.332 0 0 0 3.334-3.334V5A3.333 3.333 0 0 0 15 1.666H6.667a3.333 3.333 0 0 0-3.333 3.333v1.667a.834.834 0 0 0 1.666 0V4.999c0-.92.747-1.666 1.667-1.666H15c.921 0 1.667.746 1.667 1.666v10c0 .921-.746 1.667-1.667 1.667H6.667c-.92 0-1.667-.746-1.667-1.667v-1.666a.834.834 0 0 0-1.666 0zm6.321-4.167L8.578 8.089a.834.834 0 0 1 1.178-1.18l2.5 2.501a.833.833 0 0 1 0 1.18l-2.5 2.5a.834.834 0 0 1-1.178-1.18l1.077-1.077H2.5a.834.834 0 0 1 0-1.667h7.155z" fill="currentColor"/>
</svg>
