<svg width="22" height="22" viewBox="0 0 22 22" fill="none" xmlns="http://www.w3.org/2000/svg">
<path d="M17.9369 11.0002C17.9369 10.951 17.9363 10.9019 17.9353 10.8528C17.9207 10.1844 18.21 9.52137 18.7904 9.1896V9.1896C19.5488 8.75615 19.8086 7.78781 19.3692 7.03293L18.6515 5.80005C18.2104 5.04223 17.2404 4.78236 16.4795 5.21814V5.21814C15.8965 5.55201 15.1755 5.46893 14.5999 5.12244C14.5108 5.06881 14.4206 5.01719 14.3291 4.96759C13.7429 4.64959 13.3123 4.07061 13.3123 3.4037V3.4037C13.3123 2.5365 12.6093 1.8335 11.7421 1.8335H10.258C9.39076 1.8335 8.68776 2.5365 8.68776 3.4037V3.4037C8.68776 4.07061 8.25716 4.64959 7.67095 4.96759C7.57953 5.01719 7.48925 5.06881 7.40018 5.12244C6.82464 5.46893 6.10354 5.55201 5.52058 5.21814V5.21814C4.75967 4.78236 3.78969 5.04223 3.34856 5.80005L2.63075 7.03316C2.19139 7.78791 2.45121 8.75609 3.20942 9.18947V9.18947C3.78994 9.5213 4.0791 10.1846 4.06482 10.8531C4.06273 10.9511 4.06273 11.0492 4.06482 11.1472C4.0791 11.8158 3.78994 12.479 3.20942 12.8109V12.8109C2.45121 13.2442 2.19139 14.2124 2.63075 14.9672L3.34856 16.2003C3.78973 16.9582 4.7597 17.2181 5.52077 16.7825V16.7825C6.10367 16.4489 6.82456 16.5319 7.40005 16.8782C7.48909 16.9318 7.57933 16.9833 7.6707 17.0329C8.25704 17.3508 8.68776 17.9298 8.68776 18.5968V18.5968C8.68776 19.4639 9.39069 20.1668 10.2578 20.1668H11.7421C12.6093 20.1668 13.3123 19.4638 13.3123 18.5966V18.5966C13.3123 17.9297 13.7429 17.3507 14.3291 17.0327C14.4206 16.9831 14.5108 16.9315 14.5999 16.8779C15.1755 16.5314 15.8965 16.4483 16.4795 16.7822V16.7822C17.2404 17.218 18.2104 16.9581 18.6515 16.2003L19.3692 14.9674C19.8086 14.2125 19.5488 13.2442 18.7904 12.8107V12.8107C18.21 12.479 17.9207 11.8159 17.9353 11.1475C17.9363 11.0984 17.9369 11.0493 17.9369 11.0002ZM13.3123 11.0002C13.3123 11.4534 13.1767 11.8965 12.9226 12.2733C12.6686 12.6502 12.3074 12.9439 11.8849 13.1174C11.4624 13.2908 10.9975 13.3362 10.5489 13.2478C10.1004 13.1594 9.68839 12.9411 9.36501 12.6206C9.04163 12.3001 8.82141 11.8918 8.73219 11.4472C8.64297 11.0027 8.68876 10.5419 8.86377 10.1232C9.03878 9.70443 9.33515 9.34652 9.71541 9.09471C10.0957 8.8429 10.5427 8.7085 11 8.7085C11.6133 8.7085 12.2014 8.94994 12.6351 9.37971C13.0687 9.80948 13.3123 10.3924 13.3123 11.0002Z" fill="currentColor"/>
</svg>
